<svg viewBox="0 0 1200 300" xmlns="http://www.w3.org/2000/svg">

<defs>
  <linearGradient id="bg" x1="0%" y1="0%" x2="100%" y2="100%">
    <stop offset="0%" stop-color="#0A0F1E"/>
    <stop offset="55%" stop-color="#0B1526"/>
    <stop offset="100%" stop-color="#0A121F"/>
  </linearGradient>
  <radialGradient id="glow" cx="72%" cy="50%" r="60%">
    <stop offset="0%" stop-color="#0F9D8C" stop-opacity="0.16"/>
    <stop offset="100%" stop-color="#0F9D8C" stop-opacity="0"/>
  </radialGradient>
</defs>

<rect x="0" y="0" width="1200" height="300" fill="url(#bg)"/>
<rect x="0" y="0" width="1200" height="300" fill="url(#glow)"/>
<line x1="179.2" y1="73.2" x2="753.2" y2="89.1" stroke="#2DD4BF" stroke-width="1" opacity="0.100"/>
<line x1="197.2" y1="52.8" x2="751.6" y2="94.8" stroke="#2DD4BF" stroke-width="1" opacity="0.100"/>
<line x1="70.0" y1="60.0" x2="724.9" y2="106.2" stroke="#2DD4BF" stroke-width="1" opacity="0.100"/>
<line x1="136.0" y1="178.0" x2="791.2" y2="88.4" stroke="#2DD4BF" stroke-width="1" opacity="0.100"/>
<line x1="459.8" y1="50.2" x2="774.7" y2="83.8" stroke="#2DD4BF" stroke-width="1" opacity="0.100"/>
<line x1="90.7" y1="107.9" x2="767.4" y2="84.5" stroke="#2DD4BF" stroke-width="1" opacity="0.100"/>
<line x1="314.7" y1="121.9" x2="749.6" y2="93.0" stroke="#2DD4BF" stroke-width="1" opacity="0.100"/>
<line x1="128.6" y1="189.7" x2="738.1" y2="101.6" stroke="#2DD4BF" stroke-width="1" opacity="0.100"/>
<line x1="234.9" y1="105.9" x2="770.0" y2="73.4" stroke="#2DD4BF" stroke-width="1" opacity="0.100"/>
<line x1="287.0" y1="155.5" x2="786.2" y2="78.8" stroke="#2DD4BF" stroke-width="1" opacity="0.100"/>
<line x1="461.5" y1="66.0" x2="727.1" y2="106.5" stroke="#2DD4BF" stroke-width="1" opacity="0.100"/>
<line x1="250.3" y1="48.6" x2="741.3" y2="74.5" stroke="#2DD4BF" stroke-width="1" opacity="0.100"/>
<line x1="416.5" y1="109.0" x2="748.7" y2="75.5" stroke="#2DD4BF" stroke-width="1" opacity="0.100"/>
<line x1="236.2" y1="224.8" x2="788.1" y2="88.7" stroke="#2DD4BF" stroke-width="1" opacity="0.100"/>
<line x1="66.1" y1="194.3" x2="733.9" y2="73.6" stroke="#2DD4BF" stroke-width="1" opacity="0.100"/>
<line x1="162.4" y1="124.9" x2="756.8" y2="91.5" stroke="#2DD4BF" stroke-width="1" opacity="0.100"/>
<line x1="112.3" y1="65.8" x2="1035.5" y2="103.5" stroke="#38BDF8" stroke-width="1" opacity="0.100"/>
<line x1="146.5" y1="126.0" x2="1008.5" y2="89.5" stroke="#38BDF8" stroke-width="1" opacity="0.100"/>
<line x1="276.3" y1="234.3" x2="1017.0" y2="72.3" stroke="#38BDF8" stroke-width="1" opacity="0.100"/>
<line x1="218.6" y1="118.9" x2="1031.7" y2="77.5" stroke="#38BDF8" stroke-width="1" opacity="0.100"/>
<line x1="115.8" y1="91.0" x2="1003.2" y2="113.6" stroke="#38BDF8" stroke-width="1" opacity="0.100"/>
<line x1="153.0" y1="40.9" x2="977.0" y2="103.0" stroke="#38BDF8" stroke-width="1" opacity="0.100"/>
<line x1="449.8" y1="191.9" x2="966.0" y2="92.9" stroke="#38BDF8" stroke-width="1" opacity="0.100"/>
<line x1="63.2" y1="237.9" x2="1007.6" y2="70.3" stroke="#38BDF8" stroke-width="1" opacity="0.100"/>
<line x1="208.7" y1="127.8" x2="1027.5" y2="108.0" stroke="#38BDF8" stroke-width="1" opacity="0.100"/>
<line x1="69.0" y1="85.9" x2="1013.3" y2="108.4" stroke="#38BDF8" stroke-width="1" opacity="0.100"/>
<line x1="40.1" y1="73.3" x2="1021.0" y2="104.7" stroke="#38BDF8" stroke-width="1" opacity="0.100"/>
<line x1="416.0" y1="175.1" x2="1013.0" y2="105.9" stroke="#38BDF8" stroke-width="1" opacity="0.100"/>
<line x1="196.6" y1="67.0" x2="1025.2" y2="73.2" stroke="#38BDF8" stroke-width="1" opacity="0.100"/>
<line x1="248.0" y1="58.9" x2="1020.3" y2="104.4" stroke="#38BDF8" stroke-width="1" opacity="0.100"/>
<line x1="396.4" y1="75.5" x2="1041.9" y2="98.8" stroke="#38BDF8" stroke-width="1" opacity="0.100"/>
<line x1="103.0" y1="159.5" x2="1031.1" y2="98.3" stroke="#38BDF8" stroke-width="1" opacity="0.100"/>
<line x1="411.2" y1="193.2" x2="758.2" y2="231.3" stroke="#FBBF24" stroke-width="1" opacity="0.100"/>
<line x1="371.9" y1="157.2" x2="764.5" y2="199.8" stroke="#FBBF24" stroke-width="1" opacity="0.100"/>
<line x1="388.9" y1="256.7" x2="783.4" y2="195.7" stroke="#FBBF24" stroke-width="1" opacity="0.100"/>
<line x1="358.1" y1="89.9" x2="734.3" y2="213.2" stroke="#FBBF24" stroke-width="1" opacity="0.100"/>
<line x1="52.0" y1="101.5" x2="757.9" y2="237.4" stroke="#FBBF24" stroke-width="1" opacity="0.100"/>
<line x1="232.3" y1="246.1" x2="802.3" y2="213.0" stroke="#FBBF24" stroke-width="1" opacity="0.100"/>
<line x1="134.8" y1="89.9" x2="766.4" y2="226.5" stroke="#FBBF24" stroke-width="1" opacity="0.100"/>
<line x1="427.1" y1="224.9" x2="725.2" y2="217.8" stroke="#FBBF24" stroke-width="1" opacity="0.100"/>
<line x1="76.5" y1="185.3" x2="792.4" y2="202.2" stroke="#FBBF24" stroke-width="1" opacity="0.100"/>
<line x1="245.6" y1="79.3" x2="766.1" y2="199.9" stroke="#FBBF24" stroke-width="1" opacity="0.100"/>
<line x1="457.8" y1="127.1" x2="725.6" y2="230.2" stroke="#FBBF24" stroke-width="1" opacity="0.100"/>
<line x1="113.1" y1="67.9" x2="784.0" y2="235.8" stroke="#FBBF24" stroke-width="1" opacity="0.100"/>
<line x1="102.9" y1="221.8" x2="794.9" y2="212.3" stroke="#FBBF24" stroke-width="1" opacity="0.100"/>
<line x1="275.9" y1="68.8" x2="802.6" y2="217.4" stroke="#FBBF24" stroke-width="1" opacity="0.100"/>
<line x1="266.4" y1="245.4" x2="722.9" y2="225.2" stroke="#FBBF24" stroke-width="1" opacity="0.100"/>
<line x1="130.7" y1="95.4" x2="754.3" y2="227.7" stroke="#FBBF24" stroke-width="1" opacity="0.100"/>
<line x1="151.5" y1="132.2" x2="1028.1" y2="233.8" stroke="#FB7185" stroke-width="1" opacity="0.100"/>
<line x1="237.0" y1="168.3" x2="1023.2" y2="205.1" stroke="#FB7185" stroke-width="1" opacity="0.100"/>
<line x1="255.7" y1="157.0" x2="994.1" y2="214.5" stroke="#FB7185" stroke-width="1" opacity="0.100"/>
<line x1="118.7" y1="40.9" x2="1005.5" y2="204.4" stroke="#FB7185" stroke-width="1" opacity="0.100"/>
<line x1="351.8" y1="162.4" x2="985.6" y2="232.2" stroke="#FB7185" stroke-width="1" opacity="0.100"/>
<line x1="377.2" y1="63.3" x2="979.9" y2="210.0" stroke="#FB7185" stroke-width="1" opacity="0.100"/>
<line x1="372.1" y1="151.7" x2="965.0" y2="206.1" stroke="#FB7185" stroke-width="1" opacity="0.100"/>
<line x1="230.6" y1="174.8" x2="969.0" y2="214.3" stroke="#FB7185" stroke-width="1" opacity="0.100"/>
<line x1="234.5" y1="157.3" x2="958.3" y2="218.6" stroke="#FB7185" stroke-width="1" opacity="0.100"/>
<line x1="416.9" y1="247.3" x2="998.0" y2="235.1" stroke="#FB7185" stroke-width="1" opacity="0.100"/>
<line x1="401.2" y1="70.2" x2="1020.8" y2="227.4" stroke="#FB7185" stroke-width="1" opacity="0.100"/>
<line x1="143.5" y1="56.1" x2="981.4" y2="194.2" stroke="#FB7185" stroke-width="1" opacity="0.100"/>
<line x1="106.4" y1="197.5" x2="991.2" y2="206.4" stroke="#FB7185" stroke-width="1" opacity="0.100"/>
<line x1="456.0" y1="88.3" x2="1026.2" y2="210.0" stroke="#FB7185" stroke-width="1" opacity="0.100"/>
<line x1="465.6" y1="223.1" x2="1015.1" y2="230.0" stroke="#FB7185" stroke-width="1" opacity="0.100"/>
<line x1="185.8" y1="83.1" x2="984.6" y2="235.8" stroke="#FB7185" stroke-width="1" opacity="0.100"/>
<circle cx="760" cy="95" r="58" fill="#2DD4BF" opacity="0.07"/>
<circle cx="1000" cy="95" r="58" fill="#38BDF8" opacity="0.07"/>
<circle cx="760" cy="215" r="58" fill="#FBBF24" opacity="0.07"/>
<circle cx="1000" cy="215" r="58" fill="#FB7185" opacity="0.07"/>
<circle cx="179.2" cy="73.2" r="3.53" fill="#4B5568" opacity="0.55"/>
<circle cx="197.2" cy="52.8" r="3.32" fill="#4B5568" opacity="0.55"/>
<circle cx="70.0" cy="60.0" r="2.70" fill="#4B5568" opacity="0.55"/>
<circle cx="136.0" cy="178.0" r="3.25" fill="#4B5568" opacity="0.55"/>
<circle cx="459.8" cy="50.2" r="2.74" fill="#4B5568" opacity="0.55"/>
<circle cx="90.7" cy="107.9" r="3.62" fill="#4B5568" opacity="0.55"/>
<circle cx="314.7" cy="121.9" r="2.57" fill="#4B5568" opacity="0.55"/>
<circle cx="128.6" cy="189.7" r="3.63" fill="#4B5568" opacity="0.55"/>
<circle cx="234.9" cy="105.9" r="2.94" fill="#4B5568" opacity="0.55"/>
<circle cx="287.0" cy="155.5" r="3.03" fill="#4B5568" opacity="0.55"/>
<circle cx="461.5" cy="66.0" r="2.75" fill="#4B5568" opacity="0.55"/>
<circle cx="250.3" cy="48.6" r="3.60" fill="#4B5568" opacity="0.55"/>
<circle cx="416.5" cy="109.0" r="3.62" fill="#4B5568" opacity="0.55"/>
<circle cx="236.2" cy="224.8" r="3.79" fill="#4B5568" opacity="0.55"/>
<circle cx="66.1" cy="194.3" r="4.11" fill="#4B5568" opacity="0.55"/>
<circle cx="162.4" cy="124.9" r="3.38" fill="#4B5568" opacity="0.55"/>
<circle cx="112.3" cy="65.8" r="2.71" fill="#4B5568" opacity="0.55"/>
<circle cx="146.5" cy="126.0" r="3.35" fill="#4B5568" opacity="0.55"/>
<circle cx="276.3" cy="234.3" r="3.01" fill="#4B5568" opacity="0.55"/>
<circle cx="218.6" cy="118.9" r="2.75" fill="#4B5568" opacity="0.55"/>
<circle cx="115.8" cy="91.0" r="3.64" fill="#4B5568" opacity="0.55"/>
<circle cx="153.0" cy="40.9" r="3.59" fill="#4B5568" opacity="0.55"/>
<circle cx="449.8" cy="191.9" r="3.81" fill="#4B5568" opacity="0.55"/>
<circle cx="63.2" cy="237.9" r="4.06" fill="#4B5568" opacity="0.55"/>
<circle cx="208.7" cy="127.8" r="2.57" fill="#4B5568" opacity="0.55"/>
<circle cx="69.0" cy="85.9" r="2.55" fill="#4B5568" opacity="0.55"/>
<circle cx="40.1" cy="73.3" r="2.50" fill="#4B5568" opacity="0.55"/>
<circle cx="416.0" cy="175.1" r="3.15" fill="#4B5568" opacity="0.55"/>
<circle cx="196.6" cy="67.0" r="3.39" fill="#4B5568" opacity="0.55"/>
<circle cx="248.0" cy="58.9" r="2.98" fill="#4B5568" opacity="0.55"/>
<circle cx="396.4" cy="75.5" r="3.51" fill="#4B5568" opacity="0.55"/>
<circle cx="103.0" cy="159.5" r="4.42" fill="#4B5568" opacity="0.55"/>
<circle cx="411.2" cy="193.2" r="2.78" fill="#4B5568" opacity="0.55"/>
<circle cx="371.9" cy="157.2" r="2.90" fill="#4B5568" opacity="0.55"/>
<circle cx="388.9" cy="256.7" r="4.10" fill="#4B5568" opacity="0.55"/>
<circle cx="358.1" cy="89.9" r="2.51" fill="#4B5568" opacity="0.55"/>
<circle cx="52.0" cy="101.5" r="4.38" fill="#4B5568" opacity="0.55"/>
<circle cx="232.3" cy="246.1" r="3.18" fill="#4B5568" opacity="0.55"/>
<circle cx="134.8" cy="89.9" r="3.71" fill="#4B5568" opacity="0.55"/>
<circle cx="427.1" cy="224.9" r="4.06" fill="#4B5568" opacity="0.55"/>
<circle cx="76.5" cy="185.3" r="3.96" fill="#4B5568" opacity="0.55"/>
<circle cx="245.6" cy="79.3" r="4.06" fill="#4B5568" opacity="0.55"/>
<circle cx="457.8" cy="127.1" r="3.91" fill="#4B5568" opacity="0.55"/>
<circle cx="113.1" cy="67.9" r="4.07" fill="#4B5568" opacity="0.55"/>
<circle cx="102.9" cy="221.8" r="3.15" fill="#4B5568" opacity="0.55"/>
<circle cx="275.9" cy="68.8" r="3.76" fill="#4B5568" opacity="0.55"/>
<circle cx="266.4" cy="245.4" r="4.11" fill="#4B5568" opacity="0.55"/>
<circle cx="130.7" cy="95.4" r="3.63" fill="#4B5568" opacity="0.55"/>
<circle cx="151.5" cy="132.2" r="3.16" fill="#4B5568" opacity="0.55"/>
<circle cx="237.0" cy="168.3" r="4.30" fill="#4B5568" opacity="0.55"/>
<circle cx="255.7" cy="157.0" r="3.34" fill="#4B5568" opacity="0.55"/>
<circle cx="118.7" cy="40.9" r="3.40" fill="#4B5568" opacity="0.55"/>
<circle cx="351.8" cy="162.4" r="3.57" fill="#4B5568" opacity="0.55"/>
<circle cx="377.2" cy="63.3" r="3.01" fill="#4B5568" opacity="0.55"/>
<circle cx="372.1" cy="151.7" r="4.29" fill="#4B5568" opacity="0.55"/>
<circle cx="230.6" cy="174.8" r="3.84" fill="#4B5568" opacity="0.55"/>
<circle cx="234.5" cy="157.3" r="3.86" fill="#4B5568" opacity="0.55"/>
<circle cx="416.9" cy="247.3" r="4.35" fill="#4B5568" opacity="0.55"/>
<circle cx="401.2" cy="70.2" r="2.59" fill="#4B5568" opacity="0.55"/>
<circle cx="143.5" cy="56.1" r="4.26" fill="#4B5568" opacity="0.55"/>
<circle cx="106.4" cy="197.5" r="4.23" fill="#4B5568" opacity="0.55"/>
<circle cx="456.0" cy="88.3" r="3.43" fill="#4B5568" opacity="0.55"/>
<circle cx="465.6" cy="223.1" r="3.49" fill="#4B5568" opacity="0.55"/>
<circle cx="185.8" cy="83.1" r="2.49" fill="#4B5568" opacity="0.55"/>
<circle cx="753.2" cy="89.1" r="4.90" fill="#2DD4BF" opacity="0.95"/>
<circle cx="751.6" cy="94.8" r="4.61" fill="#2DD4BF" opacity="0.95"/>
<circle cx="724.9" cy="106.2" r="3.75" fill="#2DD4BF" opacity="0.95"/>
<circle cx="791.2" cy="88.4" r="4.51" fill="#2DD4BF" opacity="0.95"/>
<circle cx="774.7" cy="83.8" r="3.80" fill="#2DD4BF" opacity="0.95"/>
<circle cx="767.4" cy="84.5" r="5.03" fill="#2DD4BF" opacity="0.95"/>
<circle cx="749.6" cy="93.0" r="3.57" fill="#2DD4BF" opacity="0.95"/>
<circle cx="738.1" cy="101.6" r="5.04" fill="#2DD4BF" opacity="0.95"/>
<circle cx="770.0" cy="73.4" r="4.08" fill="#2DD4BF" opacity="0.95"/>
<circle cx="786.2" cy="78.8" r="4.21" fill="#2DD4BF" opacity="0.95"/>
<circle cx="727.1" cy="106.5" r="3.83" fill="#2DD4BF" opacity="0.95"/>
<circle cx="741.3" cy="74.5" r="5.00" fill="#2DD4BF" opacity="0.95"/>
<circle cx="748.7" cy="75.5" r="5.02" fill="#2DD4BF" opacity="0.95"/>
<circle cx="788.1" cy="88.7" r="5.26" fill="#2DD4BF" opacity="0.95"/>
<circle cx="733.9" cy="73.6" r="5.70" fill="#2DD4BF" opacity="0.95"/>
<circle cx="756.8" cy="91.5" r="4.69" fill="#2DD4BF" opacity="0.95"/>
<circle cx="1035.5" cy="103.5" r="3.76" fill="#38BDF8" opacity="0.95"/>
<circle cx="1008.5" cy="89.5" r="4.66" fill="#38BDF8" opacity="0.95"/>
<circle cx="1017.0" cy="72.3" r="4.18" fill="#38BDF8" opacity="0.95"/>
<circle cx="1031.7" cy="77.5" r="3.82" fill="#38BDF8" opacity="0.95"/>
<circle cx="1003.2" cy="113.6" r="5.05" fill="#38BDF8" opacity="0.95"/>
<circle cx="977.0" cy="103.0" r="4.99" fill="#38BDF8" opacity="0.95"/>
<circle cx="966.0" cy="92.9" r="5.29" fill="#38BDF8" opacity="0.95"/>
<circle cx="1007.6" cy="70.3" r="5.63" fill="#38BDF8" opacity="0.95"/>
<circle cx="1027.5" cy="108.0" r="3.57" fill="#38BDF8" opacity="0.95"/>
<circle cx="1013.3" cy="108.4" r="3.55" fill="#38BDF8" opacity="0.95"/>
<circle cx="1021.0" cy="104.7" r="3.47" fill="#38BDF8" opacity="0.95"/>
<circle cx="1013.0" cy="105.9" r="4.37" fill="#38BDF8" opacity="0.95"/>
<circle cx="1025.2" cy="73.2" r="4.70" fill="#38BDF8" opacity="0.95"/>
<circle cx="1020.3" cy="104.4" r="4.14" fill="#38BDF8" opacity="0.95"/>
<circle cx="1041.9" cy="98.8" r="4.88" fill="#38BDF8" opacity="0.95"/>
<circle cx="1031.1" cy="98.3" r="6.14" fill="#38BDF8" opacity="0.95"/>
<circle cx="758.2" cy="231.3" r="3.87" fill="#FBBF24" opacity="0.95"/>
<circle cx="764.5" cy="199.8" r="4.02" fill="#FBBF24" opacity="0.95"/>
<circle cx="783.4" cy="195.7" r="5.69" fill="#FBBF24" opacity="0.95"/>
<circle cx="734.3" cy="213.2" r="3.48" fill="#FBBF24" opacity="0.95"/>
<circle cx="757.9" cy="237.4" r="6.08" fill="#FBBF24" opacity="0.95"/>
<circle cx="802.3" cy="213.0" r="4.42" fill="#FBBF24" opacity="0.95"/>
<circle cx="766.4" cy="226.5" r="5.15" fill="#FBBF24" opacity="0.95"/>
<circle cx="725.2" cy="217.8" r="5.64" fill="#FBBF24" opacity="0.95"/>
<circle cx="792.4" cy="202.2" r="5.50" fill="#FBBF24" opacity="0.95"/>
<circle cx="766.1" cy="199.9" r="5.64" fill="#FBBF24" opacity="0.95"/>
<circle cx="725.6" cy="230.2" r="5.43" fill="#FBBF24" opacity="0.95"/>
<circle cx="784.0" cy="235.8" r="5.66" fill="#FBBF24" opacity="0.95"/>
<circle cx="794.9" cy="212.3" r="4.38" fill="#FBBF24" opacity="0.95"/>
<circle cx="802.6" cy="217.4" r="5.22" fill="#FBBF24" opacity="0.95"/>
<circle cx="722.9" cy="225.2" r="5.71" fill="#FBBF24" opacity="0.95"/>
<circle cx="754.3" cy="227.7" r="5.04" fill="#FBBF24" opacity="0.95"/>
<circle cx="1028.1" cy="233.8" r="4.39" fill="#FB7185" opacity="0.95"/>
<circle cx="1023.2" cy="205.1" r="5.97" fill="#FB7185" opacity="0.95"/>
<circle cx="994.1" cy="214.5" r="4.63" fill="#FB7185" opacity="0.95"/>
<circle cx="1005.5" cy="204.4" r="4.73" fill="#FB7185" opacity="0.95"/>
<circle cx="985.6" cy="232.2" r="4.96" fill="#FB7185" opacity="0.95"/>
<circle cx="979.9" cy="210.0" r="4.18" fill="#FB7185" opacity="0.95"/>
<circle cx="965.0" cy="206.1" r="5.95" fill="#FB7185" opacity="0.95"/>
<circle cx="969.0" cy="214.3" r="5.34" fill="#FB7185" opacity="0.95"/>
<circle cx="958.3" cy="218.6" r="5.36" fill="#FB7185" opacity="0.95"/>
<circle cx="998.0" cy="235.1" r="6.04" fill="#FB7185" opacity="0.95"/>
<circle cx="1020.8" cy="227.4" r="3.60" fill="#FB7185" opacity="0.95"/>
<circle cx="981.4" cy="194.2" r="5.91" fill="#FB7185" opacity="0.95"/>
<circle cx="991.2" cy="206.4" r="5.87" fill="#FB7185" opacity="0.95"/>
<circle cx="1026.2" cy="210.0" r="4.76" fill="#FB7185" opacity="0.95"/>
<circle cx="1015.1" cy="230.0" r="4.84" fill="#FB7185" opacity="0.95"/>
<circle cx="984.6" cy="235.8" r="3.45" fill="#FB7185" opacity="0.95"/>
<text x="730" y="27" font-family="Helvetica Neue, Arial, sans-serif" font-size="12" font-weight="600" letter-spacing="0.5" fill="#2DD4BF" opacity="0.9">Loyal High-Value</text>
<text x="1000" y="27" font-family="Helvetica Neue, Arial, sans-serif" font-size="12" font-weight="600" letter-spacing="0.5" fill="#38BDF8" opacity="0.9">New</text>
<text x="730" y="277" font-family="Helvetica Neue, Arial, sans-serif" font-size="12" font-weight="600" letter-spacing="0.5" fill="#FBBF24" opacity="0.9">At Risk</text>
<text x="1010" y="277" font-family="Helvetica Neue, Arial, sans-serif" font-size="12" font-weight="600" letter-spacing="0.5" fill="#FB7185" opacity="0.9">Lost</text>
<text x="56" y="118" font-family="Consolas, Menlo, monospace" font-size="13" font-weight="600" letter-spacing="3" fill="#2DD4BF">RFM &#183; K-MEANS SEGMENTATION</text>
<text x="54" y="172" font-family="Helvetica Neue, Arial, sans-serif" font-size="56" font-weight="800" letter-spacing="-1" fill="#F5F7FA">CustomerLens</text>
<text x="56" y="206" font-family="Helvetica Neue, Arial, sans-serif" font-size="16" font-weight="400" fill="#9AA5B4">Multi-store customer intelligence for teams without a data team.</text>
</svg>